<svg id="visual" viewBox="0 0 328 300" width="328" height="300" xmlns="http://www.w3.org/2000/svg" xmlns:xlink="http://www.w3.org/1999/xlink" version="1.1"><rect x="0" y="0" width="328" height="300" fill="#020C1B"></rect><path d="M0 240L18 240L18 203L36 203L36 239L55 239L55 252L73 252L73 246L91 246L91 203L109 203L109 253L128 253L128 199L146 199L146 221L164 221L164 246L182 246L182 232L200 232L200 227L219 227L219 252L237 252L237 229L255 229L255 214L273 214L273 232L292 232L292 242L310 242L310 198L328 198L328 218L328 0L328 0L310 0L310 0L292 0L292 0L273 0L273 0L255 0L255 0L237 0L237 0L219 0L219 0L200 0L200 0L182 0L182 0L164 0L164 0L146 0L146 0L128 0L128 0L109 0L109 0L91 0L91 0L73 0L73 0L55 0L55 0L36 0L36 0L18 0L18 0L0 0Z" fill="#091120"></path><path d="M0 119L18 119L18 145L36 145L36 122L55 122L55 158L73 158L73 128L91 128L91 135L109 135L109 149L128 149L128 177L146 177L146 154L164 154L164 144L182 144L182 172L200 172L200 155L219 155L219 152L237 152L237 177L255 177L255 124L273 124L273 140L292 140L292 175L310 175L310 142L328 142L328 165L328 0L328 0L310 0L310 0L292 0L292 0L273 0L273 0L255 0L255 0L237 0L237 0L219 0L219 0L200 0L200 0L182 0L182 0L164 0L164 0L146 0L146 0L128 0L128 0L109 0L109 0L91 0L91 0L73 0L73 0L55 0L55 0L36 0L36 0L18 0L18 0L0 0Z" fill="#0d1a30"></path><path d="M0 78L18 78L18 72L36 72L36 48L55 48L55 55L73 55L73 61L91 61L91 97L109 97L109 71L128 71L128 57L146 57L146 99L164 99L164 79L182 79L182 85L200 85L200 63L219 63L219 66L237 66L237 50L255 50L255 102L273 102L273 102L292 102L292 81L310 81L310 66L328 66L328 89L328 0L328 0L310 0L310 0L292 0L292 0L273 0L273 0L255 0L255 0L237 0L237 0L219 0L219 0L200 0L200 0L182 0L182 0L164 0L164 0L146 0L146 0L128 0L128 0L109 0L109 0L91 0L91 0L73 0L73 0L55 0L55 0L36 0L36 0L18 0L18 0L0 0Z" fill="#112240"></path></svg>