<svg id="visual" viewBox="0 0 1980 300" width="1980" height="300" xmlns="http://www.w3.org/2000/svg" xmlns:xlink="http://www.w3.org/1999/xlink" version="1.1"><rect x="0" y="0" width="1980" height="300" fill="#020C1B"></rect><path d="M0 240L110 240L110 203L220 203L220 239L330 239L330 252L440 252L440 246L550 246L550 203L660 203L660 253L770 253L770 199L880 199L880 221L990 221L990 246L1100 246L1100 232L1210 232L1210 227L1320 227L1320 252L1430 252L1430 229L1540 229L1540 214L1650 214L1650 232L1760 232L1760 242L1870 242L1870 198L1980 198L1980 218L1980 0L1980 0L1870 0L1870 0L1760 0L1760 0L1650 0L1650 0L1540 0L1540 0L1430 0L1430 0L1320 0L1320 0L1210 0L1210 0L1100 0L1100 0L990 0L990 0L880 0L880 0L770 0L770 0L660 0L660 0L550 0L550 0L440 0L440 0L330 0L330 0L220 0L220 0L110 0L110 0L0 0Z" fill="#091120"></path><path d="M0 119L110 119L110 145L220 145L220 122L330 122L330 158L440 158L440 128L550 128L550 135L660 135L660 149L770 149L770 177L880 177L880 154L990 154L990 144L1100 144L1100 172L1210 172L1210 155L1320 155L1320 152L1430 152L1430 177L1540 177L1540 124L1650 124L1650 140L1760 140L1760 175L1870 175L1870 142L1980 142L1980 165L1980 0L1980 0L1870 0L1870 0L1760 0L1760 0L1650 0L1650 0L1540 0L1540 0L1430 0L1430 0L1320 0L1320 0L1210 0L1210 0L1100 0L1100 0L990 0L990 0L880 0L880 0L770 0L770 0L660 0L660 0L550 0L550 0L440 0L440 0L330 0L330 0L220 0L220 0L110 0L110 0L0 0Z" fill="#0d1a30"></path><path d="M0 78L110 78L110 72L220 72L220 48L330 48L330 55L440 55L440 61L550 61L550 97L660 97L660 71L770 71L770 57L880 57L880 99L990 99L990 79L1100 79L1100 85L1210 85L1210 63L1320 63L1320 66L1430 66L1430 50L1540 50L1540 102L1650 102L1650 102L1760 102L1760 81L1870 81L1870 66L1980 66L1980 89L1980 0L1980 0L1870 0L1870 0L1760 0L1760 0L1650 0L1650 0L1540 0L1540 0L1430 0L1430 0L1320 0L1320 0L1210 0L1210 0L1100 0L1100 0L990 0L990 0L880 0L880 0L770 0L770 0L660 0L660 0L550 0L550 0L440 0L440 0L330 0L330 0L220 0L220 0L110 0L110 0L0 0Z" fill="#112240"></path></svg>