<svg id="visual" viewBox="0 0 1280 300" width="1280" height="300" xmlns="http://www.w3.org/2000/svg" xmlns:xlink="http://www.w3.org/1999/xlink" version="1.1"><rect x="0" y="0" width="1280" height="300" fill="#020C1B"></rect><path d="M0 240L71 240L71 203L142 203L142 239L213 239L213 252L284 252L284 246L356 246L356 203L427 203L427 253L498 253L498 199L569 199L569 221L640 221L640 246L711 246L711 232L782 232L782 227L853 227L853 252L924 252L924 229L996 229L996 214L1067 214L1067 232L1138 232L1138 242L1209 242L1209 198L1280 198L1280 218L1280 0L1280 0L1209 0L1209 0L1138 0L1138 0L1067 0L1067 0L996 0L996 0L924 0L924 0L853 0L853 0L782 0L782 0L711 0L711 0L640 0L640 0L569 0L569 0L498 0L498 0L427 0L427 0L356 0L356 0L284 0L284 0L213 0L213 0L142 0L142 0L71 0L71 0L0 0Z" fill="#091120"></path><path d="M0 119L71 119L71 145L142 145L142 122L213 122L213 158L284 158L284 128L356 128L356 135L427 135L427 149L498 149L498 177L569 177L569 154L640 154L640 144L711 144L711 172L782 172L782 155L853 155L853 152L924 152L924 177L996 177L996 124L1067 124L1067 140L1138 140L1138 175L1209 175L1209 142L1280 142L1280 165L1280 0L1280 0L1209 0L1209 0L1138 0L1138 0L1067 0L1067 0L996 0L996 0L924 0L924 0L853 0L853 0L782 0L782 0L711 0L711 0L640 0L640 0L569 0L569 0L498 0L498 0L427 0L427 0L356 0L356 0L284 0L284 0L213 0L213 0L142 0L142 0L71 0L71 0L0 0Z" fill="#0d1a30"></path><path d="M0 78L71 78L71 72L142 72L142 48L213 48L213 55L284 55L284 61L356 61L356 97L427 97L427 71L498 71L498 57L569 57L569 99L640 99L640 79L711 79L711 85L782 85L782 63L853 63L853 66L924 66L924 50L996 50L996 102L1067 102L1067 102L1138 102L1138 81L1209 81L1209 66L1280 66L1280 89L1280 0L1280 0L1209 0L1209 0L1138 0L1138 0L1067 0L1067 0L996 0L996 0L924 0L924 0L853 0L853 0L782 0L782 0L711 0L711 0L640 0L640 0L569 0L569 0L498 0L498 0L427 0L427 0L356 0L356 0L284 0L284 0L213 0L213 0L142 0L142 0L71 0L71 0L0 0Z" fill="#112240"></path></svg>