<svg id="visual" viewBox="0 0 728 300" width="728" height="300" xmlns="http://www.w3.org/2000/svg" xmlns:xlink="http://www.w3.org/1999/xlink" version="1.1"><rect x="0" y="0" width="728" height="300" fill="#020C1B"></rect><path d="M0 240L40 240L40 203L81 203L81 239L121 239L121 252L162 252L162 246L202 246L202 203L243 203L243 253L283 253L283 199L324 199L324 221L364 221L364 246L404 246L404 232L445 232L445 227L485 227L485 252L526 252L526 229L566 229L566 214L607 214L607 232L647 232L647 242L688 242L688 198L728 198L728 218L728 0L728 0L688 0L688 0L647 0L647 0L607 0L607 0L566 0L566 0L526 0L526 0L485 0L485 0L445 0L445 0L404 0L404 0L364 0L364 0L324 0L324 0L283 0L283 0L243 0L243 0L202 0L202 0L162 0L162 0L121 0L121 0L81 0L81 0L40 0L40 0L0 0Z" fill="#091120"></path><path d="M0 119L40 119L40 145L81 145L81 122L121 122L121 158L162 158L162 128L202 128L202 135L243 135L243 149L283 149L283 177L324 177L324 154L364 154L364 144L404 144L404 172L445 172L445 155L485 155L485 152L526 152L526 177L566 177L566 124L607 124L607 140L647 140L647 175L688 175L688 142L728 142L728 165L728 0L728 0L688 0L688 0L647 0L647 0L607 0L607 0L566 0L566 0L526 0L526 0L485 0L485 0L445 0L445 0L404 0L404 0L364 0L364 0L324 0L324 0L283 0L283 0L243 0L243 0L202 0L202 0L162 0L162 0L121 0L121 0L81 0L81 0L40 0L40 0L0 0Z" fill="#0d1a30"></path><path d="M0 78L40 78L40 72L81 72L81 48L121 48L121 55L162 55L162 61L202 61L202 97L243 97L243 71L283 71L283 57L324 57L324 99L364 99L364 79L404 79L404 85L445 85L445 63L485 63L485 66L526 66L526 50L566 50L566 102L607 102L607 102L647 102L647 81L688 81L688 66L728 66L728 89L728 0L728 0L688 0L688 0L647 0L647 0L607 0L607 0L566 0L566 0L526 0L526 0L485 0L485 0L445 0L445 0L404 0L404 0L364 0L364 0L324 0L324 0L283 0L283 0L243 0L243 0L202 0L202 0L162 0L162 0L121 0L121 0L81 0L81 0L40 0L40 0L0 0Z" fill="#112240"></path></svg>