<svg id="visual" viewBox="0 0 528 300" width="528" height="300" xmlns="http://www.w3.org/2000/svg" xmlns:xlink="http://www.w3.org/1999/xlink" version="1.1"><rect x="0" y="0" width="528" height="300" fill="#020C1B"></rect><path d="M0 240L29 240L29 203L59 203L59 239L88 239L88 252L117 252L117 246L147 246L147 203L176 203L176 253L205 253L205 199L235 199L235 221L264 221L264 246L293 246L293 232L323 232L323 227L352 227L352 252L381 252L381 229L411 229L411 214L440 214L440 232L469 232L469 242L499 242L499 198L528 198L528 218L528 0L528 0L499 0L499 0L469 0L469 0L440 0L440 0L411 0L411 0L381 0L381 0L352 0L352 0L323 0L323 0L293 0L293 0L264 0L264 0L235 0L235 0L205 0L205 0L176 0L176 0L147 0L147 0L117 0L117 0L88 0L88 0L59 0L59 0L29 0L29 0L0 0Z" fill="#091120"></path><path d="M0 119L29 119L29 145L59 145L59 122L88 122L88 158L117 158L117 128L147 128L147 135L176 135L176 149L205 149L205 177L235 177L235 154L264 154L264 144L293 144L293 172L323 172L323 155L352 155L352 152L381 152L381 177L411 177L411 124L440 124L440 140L469 140L469 175L499 175L499 142L528 142L528 165L528 0L528 0L499 0L499 0L469 0L469 0L440 0L440 0L411 0L411 0L381 0L381 0L352 0L352 0L323 0L323 0L293 0L293 0L264 0L264 0L235 0L235 0L205 0L205 0L176 0L176 0L147 0L147 0L117 0L117 0L88 0L88 0L59 0L59 0L29 0L29 0L0 0Z" fill="#0d1a30"></path><path d="M0 78L29 78L29 72L59 72L59 48L88 48L88 55L117 55L117 61L147 61L147 97L176 97L176 71L205 71L205 57L235 57L235 99L264 99L264 79L293 79L293 85L323 85L323 63L352 63L352 66L381 66L381 50L411 50L411 102L440 102L440 102L469 102L469 81L499 81L499 66L528 66L528 89L528 0L528 0L499 0L499 0L469 0L469 0L440 0L440 0L411 0L411 0L381 0L381 0L352 0L352 0L323 0L323 0L293 0L293 0L264 0L264 0L235 0L235 0L205 0L205 0L176 0L176 0L147 0L147 0L117 0L117 0L88 0L88 0L59 0L59 0L29 0L29 0L0 0Z" fill="#112240"></path></svg>