<svg id="visual" viewBox="0 0 980 300" width="980" height="300" xmlns="http://www.w3.org/2000/svg" xmlns:xlink="http://www.w3.org/1999/xlink" version="1.1"><rect x="0" y="0" width="980" height="300" fill="#020C1B"></rect><path d="M0 240L54 240L54 203L109 203L109 239L163 239L163 252L218 252L218 246L272 246L272 203L327 203L327 253L381 253L381 199L436 199L436 221L490 221L490 246L544 246L544 232L599 232L599 227L653 227L653 252L708 252L708 229L762 229L762 214L817 214L817 232L871 232L871 242L926 242L926 198L980 198L980 218L980 0L980 0L926 0L926 0L871 0L871 0L817 0L817 0L762 0L762 0L708 0L708 0L653 0L653 0L599 0L599 0L544 0L544 0L490 0L490 0L436 0L436 0L381 0L381 0L327 0L327 0L272 0L272 0L218 0L218 0L163 0L163 0L109 0L109 0L54 0L54 0L0 0Z" fill="#091120"></path><path d="M0 119L54 119L54 145L109 145L109 122L163 122L163 158L218 158L218 128L272 128L272 135L327 135L327 149L381 149L381 177L436 177L436 154L490 154L490 144L544 144L544 172L599 172L599 155L653 155L653 152L708 152L708 177L762 177L762 124L817 124L817 140L871 140L871 175L926 175L926 142L980 142L980 165L980 0L980 0L926 0L926 0L871 0L871 0L817 0L817 0L762 0L762 0L708 0L708 0L653 0L653 0L599 0L599 0L544 0L544 0L490 0L490 0L436 0L436 0L381 0L381 0L327 0L327 0L272 0L272 0L218 0L218 0L163 0L163 0L109 0L109 0L54 0L54 0L0 0Z" fill="#0d1a30"></path><path d="M0 78L54 78L54 72L109 72L109 48L163 48L163 55L218 55L218 61L272 61L272 97L327 97L327 71L381 71L381 57L436 57L436 99L490 99L490 79L544 79L544 85L599 85L599 63L653 63L653 66L708 66L708 50L762 50L762 102L817 102L817 102L871 102L871 81L926 81L926 66L980 66L980 89L980 0L980 0L926 0L926 0L871 0L871 0L817 0L817 0L762 0L762 0L708 0L708 0L653 0L653 0L599 0L599 0L544 0L544 0L490 0L490 0L436 0L436 0L381 0L381 0L327 0L327 0L272 0L272 0L218 0L218 0L163 0L163 0L109 0L109 0L54 0L54 0L0 0Z" fill="#112240"></path></svg>