<svg id="visual" viewBox="0 0 1680 300" width="1680" height="300" xmlns="http://www.w3.org/2000/svg" xmlns:xlink="http://www.w3.org/1999/xlink" version="1.1"><rect x="0" y="0" width="1680" height="300" fill="#020C1B"></rect><path d="M0 240L93 240L93 203L187 203L187 239L280 239L280 252L373 252L373 246L467 246L467 203L560 203L560 253L653 253L653 199L747 199L747 221L840 221L840 246L933 246L933 232L1027 232L1027 227L1120 227L1120 252L1213 252L1213 229L1307 229L1307 214L1400 214L1400 232L1493 232L1493 242L1587 242L1587 198L1680 198L1680 218L1680 0L1680 0L1587 0L1587 0L1493 0L1493 0L1400 0L1400 0L1307 0L1307 0L1213 0L1213 0L1120 0L1120 0L1027 0L1027 0L933 0L933 0L840 0L840 0L747 0L747 0L653 0L653 0L560 0L560 0L467 0L467 0L373 0L373 0L280 0L280 0L187 0L187 0L93 0L93 0L0 0Z" fill="#091120"></path><path d="M0 119L93 119L93 145L187 145L187 122L280 122L280 158L373 158L373 128L467 128L467 135L560 135L560 149L653 149L653 177L747 177L747 154L840 154L840 144L933 144L933 172L1027 172L1027 155L1120 155L1120 152L1213 152L1213 177L1307 177L1307 124L1400 124L1400 140L1493 140L1493 175L1587 175L1587 142L1680 142L1680 165L1680 0L1680 0L1587 0L1587 0L1493 0L1493 0L1400 0L1400 0L1307 0L1307 0L1213 0L1213 0L1120 0L1120 0L1027 0L1027 0L933 0L933 0L840 0L840 0L747 0L747 0L653 0L653 0L560 0L560 0L467 0L467 0L373 0L373 0L280 0L280 0L187 0L187 0L93 0L93 0L0 0Z" fill="#0d1a30"></path><path d="M0 78L93 78L93 72L187 72L187 48L280 48L280 55L373 55L373 61L467 61L467 97L560 97L560 71L653 71L653 57L747 57L747 99L840 99L840 79L933 79L933 85L1027 85L1027 63L1120 63L1120 66L1213 66L1213 50L1307 50L1307 102L1400 102L1400 102L1493 102L1493 81L1587 81L1587 66L1680 66L1680 89L1680 0L1680 0L1587 0L1587 0L1493 0L1493 0L1400 0L1400 0L1307 0L1307 0L1213 0L1213 0L1120 0L1120 0L1027 0L1027 0L933 0L933 0L840 0L840 0L747 0L747 0L653 0L653 0L560 0L560 0L467 0L467 0L373 0L373 0L280 0L280 0L187 0L187 0L93 0L93 0L0 0Z" fill="#112240"></path></svg>