<svg id="visual" viewBox="0 0 728 300" width="728" height="300" xmlns="http://www.w3.org/2000/svg" xmlns:xlink="http://www.w3.org/1999/xlink" version="1.1"><rect x="0" y="0" width="728" height="300" fill="#020C1B"></rect><path d="M0 58L40 58L40 95L81 95L81 59L121 59L121 46L162 46L162 52L202 52L202 95L243 95L243 45L283 45L283 99L324 99L324 77L364 77L364 52L404 52L404 66L445 66L445 71L485 71L485 46L526 46L526 69L566 69L566 84L607 84L607 66L647 66L647 56L688 56L688 100L728 100L728 80L728 301L728 301L688 301L688 301L647 301L647 301L607 301L607 301L566 301L566 301L526 301L526 301L485 301L485 301L445 301L445 301L404 301L404 301L364 301L364 301L324 301L324 301L283 301L283 301L243 301L243 301L202 301L202 301L162 301L162 301L121 301L121 301L81 301L81 301L40 301L40 301L0 301Z" fill="#091120"></path><path d="M0 179L40 179L40 153L81 153L81 176L121 176L121 140L162 140L162 170L202 170L202 163L243 163L243 149L283 149L283 121L324 121L324 144L364 144L364 154L404 154L404 126L445 126L445 143L485 143L485 146L526 146L526 121L566 121L566 174L607 174L607 158L647 158L647 123L688 123L688 156L728 156L728 133L728 301L728 301L688 301L688 301L647 301L647 301L607 301L607 301L566 301L566 301L526 301L526 301L485 301L485 301L445 301L445 301L404 301L404 301L364 301L364 301L324 301L324 301L283 301L283 301L243 301L243 301L202 301L202 301L162 301L162 301L121 301L121 301L81 301L81 301L40 301L40 301L0 301Z" fill="#0d1a30"></path><path d="M0 220L40 220L40 226L81 226L81 250L121 250L121 243L162 243L162 237L202 237L202 201L243 201L243 227L283 227L283 241L324 241L324 199L364 199L364 219L404 219L404 213L445 213L445 235L485 235L485 232L526 232L526 248L566 248L566 196L607 196L607 196L647 196L647 217L688 217L688 232L728 232L728 209L728 301L728 301L688 301L688 301L647 301L647 301L607 301L607 301L566 301L566 301L526 301L526 301L485 301L485 301L445 301L445 301L404 301L404 301L364 301L364 301L324 301L324 301L283 301L283 301L243 301L243 301L202 301L202 301L162 301L162 301L121 301L121 301L81 301L81 301L40 301L40 301L0 301Z" fill="#112240"></path></svg>