<svg id="visual" viewBox="0 0 328 300" width="328" height="300" xmlns="http://www.w3.org/2000/svg" xmlns:xlink="http://www.w3.org/1999/xlink" version="1.1"><rect x="0" y="0" width="328" height="300" fill="#020C1B"></rect><path d="M0 58L18 58L18 95L36 95L36 59L55 59L55 46L73 46L73 52L91 52L91 95L109 95L109 45L128 45L128 99L146 99L146 77L164 77L164 52L182 52L182 66L200 66L200 71L219 71L219 46L237 46L237 69L255 69L255 84L273 84L273 66L292 66L292 56L310 56L310 100L328 100L328 80L328 301L328 301L310 301L310 301L292 301L292 301L273 301L273 301L255 301L255 301L237 301L237 301L219 301L219 301L200 301L200 301L182 301L182 301L164 301L164 301L146 301L146 301L128 301L128 301L109 301L109 301L91 301L91 301L73 301L73 301L55 301L55 301L36 301L36 301L18 301L18 301L0 301Z" fill="#091120"></path><path d="M0 179L18 179L18 153L36 153L36 176L55 176L55 140L73 140L73 170L91 170L91 163L109 163L109 149L128 149L128 121L146 121L146 144L164 144L164 154L182 154L182 126L200 126L200 143L219 143L219 146L237 146L237 121L255 121L255 174L273 174L273 158L292 158L292 123L310 123L310 156L328 156L328 133L328 301L328 301L310 301L310 301L292 301L292 301L273 301L273 301L255 301L255 301L237 301L237 301L219 301L219 301L200 301L200 301L182 301L182 301L164 301L164 301L146 301L146 301L128 301L128 301L109 301L109 301L91 301L91 301L73 301L73 301L55 301L55 301L36 301L36 301L18 301L18 301L0 301Z" fill="#0d1a30"></path><path d="M0 220L18 220L18 226L36 226L36 250L55 250L55 243L73 243L73 237L91 237L91 201L109 201L109 227L128 227L128 241L146 241L146 199L164 199L164 219L182 219L182 213L200 213L200 235L219 235L219 232L237 232L237 248L255 248L255 196L273 196L273 196L292 196L292 217L310 217L310 232L328 232L328 209L328 301L328 301L310 301L310 301L292 301L292 301L273 301L273 301L255 301L255 301L237 301L237 301L219 301L219 301L200 301L200 301L182 301L182 301L164 301L164 301L146 301L146 301L128 301L128 301L109 301L109 301L91 301L91 301L73 301L73 301L55 301L55 301L36 301L36 301L18 301L18 301L0 301Z" fill="#112240"></path></svg>