<svg id="visual" viewBox="0 0 1680 300" width="1680" height="300" xmlns="http://www.w3.org/2000/svg" xmlns:xlink="http://www.w3.org/1999/xlink" version="1.1"><rect x="0" y="0" width="1680" height="300" fill="#020C1B"></rect><path d="M0 58L93 58L93 95L187 95L187 59L280 59L280 46L373 46L373 52L467 52L467 95L560 95L560 45L653 45L653 99L747 99L747 77L840 77L840 52L933 52L933 66L1027 66L1027 71L1120 71L1120 46L1213 46L1213 69L1307 69L1307 84L1400 84L1400 66L1493 66L1493 56L1587 56L1587 100L1680 100L1680 80L1680 301L1680 301L1587 301L1587 301L1493 301L1493 301L1400 301L1400 301L1307 301L1307 301L1213 301L1213 301L1120 301L1120 301L1027 301L1027 301L933 301L933 301L840 301L840 301L747 301L747 301L653 301L653 301L560 301L560 301L467 301L467 301L373 301L373 301L280 301L280 301L187 301L187 301L93 301L93 301L0 301Z" fill="#091120"></path><path d="M0 179L93 179L93 153L187 153L187 176L280 176L280 140L373 140L373 170L467 170L467 163L560 163L560 149L653 149L653 121L747 121L747 144L840 144L840 154L933 154L933 126L1027 126L1027 143L1120 143L1120 146L1213 146L1213 121L1307 121L1307 174L1400 174L1400 158L1493 158L1493 123L1587 123L1587 156L1680 156L1680 133L1680 301L1680 301L1587 301L1587 301L1493 301L1493 301L1400 301L1400 301L1307 301L1307 301L1213 301L1213 301L1120 301L1120 301L1027 301L1027 301L933 301L933 301L840 301L840 301L747 301L747 301L653 301L653 301L560 301L560 301L467 301L467 301L373 301L373 301L280 301L280 301L187 301L187 301L93 301L93 301L0 301Z" fill="#0d1a30"></path><path d="M0 220L93 220L93 226L187 226L187 250L280 250L280 243L373 243L373 237L467 237L467 201L560 201L560 227L653 227L653 241L747 241L747 199L840 199L840 219L933 219L933 213L1027 213L1027 235L1120 235L1120 232L1213 232L1213 248L1307 248L1307 196L1400 196L1400 196L1493 196L1493 217L1587 217L1587 232L1680 232L1680 209L1680 301L1680 301L1587 301L1587 301L1493 301L1493 301L1400 301L1400 301L1307 301L1307 301L1213 301L1213 301L1120 301L1120 301L1027 301L1027 301L933 301L933 301L840 301L840 301L747 301L747 301L653 301L653 301L560 301L560 301L467 301L467 301L373 301L373 301L280 301L280 301L187 301L187 301L93 301L93 301L0 301Z" fill="#112240"></path></svg>