<svg id="visual" viewBox="0 0 1280 300" width="1280" height="300" xmlns="http://www.w3.org/2000/svg" xmlns:xlink="http://www.w3.org/1999/xlink" version="1.1"><rect x="0" y="0" width="1280" height="300" fill="#020C1B"></rect><path d="M0 58L71 58L71 95L142 95L142 59L213 59L213 46L284 46L284 52L356 52L356 95L427 95L427 45L498 45L498 99L569 99L569 77L640 77L640 52L711 52L711 66L782 66L782 71L853 71L853 46L924 46L924 69L996 69L996 84L1067 84L1067 66L1138 66L1138 56L1209 56L1209 100L1280 100L1280 80L1280 301L1280 301L1209 301L1209 301L1138 301L1138 301L1067 301L1067 301L996 301L996 301L924 301L924 301L853 301L853 301L782 301L782 301L711 301L711 301L640 301L640 301L569 301L569 301L498 301L498 301L427 301L427 301L356 301L356 301L284 301L284 301L213 301L213 301L142 301L142 301L71 301L71 301L0 301Z" fill="#091120"></path><path d="M0 179L71 179L71 153L142 153L142 176L213 176L213 140L284 140L284 170L356 170L356 163L427 163L427 149L498 149L498 121L569 121L569 144L640 144L640 154L711 154L711 126L782 126L782 143L853 143L853 146L924 146L924 121L996 121L996 174L1067 174L1067 158L1138 158L1138 123L1209 123L1209 156L1280 156L1280 133L1280 301L1280 301L1209 301L1209 301L1138 301L1138 301L1067 301L1067 301L996 301L996 301L924 301L924 301L853 301L853 301L782 301L782 301L711 301L711 301L640 301L640 301L569 301L569 301L498 301L498 301L427 301L427 301L356 301L356 301L284 301L284 301L213 301L213 301L142 301L142 301L71 301L71 301L0 301Z" fill="#0d1a30"></path><path d="M0 220L71 220L71 226L142 226L142 250L213 250L213 243L284 243L284 237L356 237L356 201L427 201L427 227L498 227L498 241L569 241L569 199L640 199L640 219L711 219L711 213L782 213L782 235L853 235L853 232L924 232L924 248L996 248L996 196L1067 196L1067 196L1138 196L1138 217L1209 217L1209 232L1280 232L1280 209L1280 301L1280 301L1209 301L1209 301L1138 301L1138 301L1067 301L1067 301L996 301L996 301L924 301L924 301L853 301L853 301L782 301L782 301L711 301L711 301L640 301L640 301L569 301L569 301L498 301L498 301L427 301L427 301L356 301L356 301L284 301L284 301L213 301L213 301L142 301L142 301L71 301L71 301L0 301Z" fill="#112240"></path></svg>