<svg id="visual" viewBox="0 0 980 300" width="980" height="300" xmlns="http://www.w3.org/2000/svg" xmlns:xlink="http://www.w3.org/1999/xlink" version="1.1"><rect x="0" y="0" width="980" height="300" fill="#020C1B"></rect><path d="M0 58L54 58L54 95L109 95L109 59L163 59L163 46L218 46L218 52L272 52L272 95L327 95L327 45L381 45L381 99L436 99L436 77L490 77L490 52L544 52L544 66L599 66L599 71L653 71L653 46L708 46L708 69L762 69L762 84L817 84L817 66L871 66L871 56L926 56L926 100L980 100L980 80L980 301L980 301L926 301L926 301L871 301L871 301L817 301L817 301L762 301L762 301L708 301L708 301L653 301L653 301L599 301L599 301L544 301L544 301L490 301L490 301L436 301L436 301L381 301L381 301L327 301L327 301L272 301L272 301L218 301L218 301L163 301L163 301L109 301L109 301L54 301L54 301L0 301Z" fill="#091120"></path><path d="M0 179L54 179L54 153L109 153L109 176L163 176L163 140L218 140L218 170L272 170L272 163L327 163L327 149L381 149L381 121L436 121L436 144L490 144L490 154L544 154L544 126L599 126L599 143L653 143L653 146L708 146L708 121L762 121L762 174L817 174L817 158L871 158L871 123L926 123L926 156L980 156L980 133L980 301L980 301L926 301L926 301L871 301L871 301L817 301L817 301L762 301L762 301L708 301L708 301L653 301L653 301L599 301L599 301L544 301L544 301L490 301L490 301L436 301L436 301L381 301L381 301L327 301L327 301L272 301L272 301L218 301L218 301L163 301L163 301L109 301L109 301L54 301L54 301L0 301Z" fill="#0d1a30"></path><path d="M0 220L54 220L54 226L109 226L109 250L163 250L163 243L218 243L218 237L272 237L272 201L327 201L327 227L381 227L381 241L436 241L436 199L490 199L490 219L544 219L544 213L599 213L599 235L653 235L653 232L708 232L708 248L762 248L762 196L817 196L817 196L871 196L871 217L926 217L926 232L980 232L980 209L980 301L980 301L926 301L926 301L871 301L871 301L817 301L817 301L762 301L762 301L708 301L708 301L653 301L653 301L599 301L599 301L544 301L544 301L490 301L490 301L436 301L436 301L381 301L381 301L327 301L327 301L272 301L272 301L218 301L218 301L163 301L163 301L109 301L109 301L54 301L54 301L0 301Z" fill="#112240"></path></svg>