<svg id="visual" viewBox="0 0 1980 300" width="1980" height="300" xmlns="http://www.w3.org/2000/svg" xmlns:xlink="http://www.w3.org/1999/xlink" version="1.1"><rect x="0" y="0" width="1980" height="300" fill="#020C1B"></rect><path d="M0 58L110 58L110 95L220 95L220 59L330 59L330 46L440 46L440 52L550 52L550 95L660 95L660 45L770 45L770 99L880 99L880 77L990 77L990 52L1100 52L1100 66L1210 66L1210 71L1320 71L1320 46L1430 46L1430 69L1540 69L1540 84L1650 84L1650 66L1760 66L1760 56L1870 56L1870 100L1980 100L1980 80L1980 301L1980 301L1870 301L1870 301L1760 301L1760 301L1650 301L1650 301L1540 301L1540 301L1430 301L1430 301L1320 301L1320 301L1210 301L1210 301L1100 301L1100 301L990 301L990 301L880 301L880 301L770 301L770 301L660 301L660 301L550 301L550 301L440 301L440 301L330 301L330 301L220 301L220 301L110 301L110 301L0 301Z" fill="#091120"></path><path d="M0 179L110 179L110 153L220 153L220 176L330 176L330 140L440 140L440 170L550 170L550 163L660 163L660 149L770 149L770 121L880 121L880 144L990 144L990 154L1100 154L1100 126L1210 126L1210 143L1320 143L1320 146L1430 146L1430 121L1540 121L1540 174L1650 174L1650 158L1760 158L1760 123L1870 123L1870 156L1980 156L1980 133L1980 301L1980 301L1870 301L1870 301L1760 301L1760 301L1650 301L1650 301L1540 301L1540 301L1430 301L1430 301L1320 301L1320 301L1210 301L1210 301L1100 301L1100 301L990 301L990 301L880 301L880 301L770 301L770 301L660 301L660 301L550 301L550 301L440 301L440 301L330 301L330 301L220 301L220 301L110 301L110 301L0 301Z" fill="#0d1a30"></path><path d="M0 220L110 220L110 226L220 226L220 250L330 250L330 243L440 243L440 237L550 237L550 201L660 201L660 227L770 227L770 241L880 241L880 199L990 199L990 219L1100 219L1100 213L1210 213L1210 235L1320 235L1320 232L1430 232L1430 248L1540 248L1540 196L1650 196L1650 196L1760 196L1760 217L1870 217L1870 232L1980 232L1980 209L1980 301L1980 301L1870 301L1870 301L1760 301L1760 301L1650 301L1650 301L1540 301L1540 301L1430 301L1430 301L1320 301L1320 301L1210 301L1210 301L1100 301L1100 301L990 301L990 301L880 301L880 301L770 301L770 301L660 301L660 301L550 301L550 301L440 301L440 301L330 301L330 301L220 301L220 301L110 301L110 301L0 301Z" fill="#112240"></path></svg>