<svg id="visual" viewBox="0 0 528 300" width="528" height="300" xmlns="http://www.w3.org/2000/svg" xmlns:xlink="http://www.w3.org/1999/xlink" version="1.1"><rect x="0" y="0" width="528" height="300" fill="#020C1B"></rect><path d="M0 58L29 58L29 95L59 95L59 59L88 59L88 46L117 46L117 52L147 52L147 95L176 95L176 45L205 45L205 99L235 99L235 77L264 77L264 52L293 52L293 66L323 66L323 71L352 71L352 46L381 46L381 69L411 69L411 84L440 84L440 66L469 66L469 56L499 56L499 100L528 100L528 80L528 301L528 301L499 301L499 301L469 301L469 301L440 301L440 301L411 301L411 301L381 301L381 301L352 301L352 301L323 301L323 301L293 301L293 301L264 301L264 301L235 301L235 301L205 301L205 301L176 301L176 301L147 301L147 301L117 301L117 301L88 301L88 301L59 301L59 301L29 301L29 301L0 301Z" fill="#091120"></path><path d="M0 179L29 179L29 153L59 153L59 176L88 176L88 140L117 140L117 170L147 170L147 163L176 163L176 149L205 149L205 121L235 121L235 144L264 144L264 154L293 154L293 126L323 126L323 143L352 143L352 146L381 146L381 121L411 121L411 174L440 174L440 158L469 158L469 123L499 123L499 156L528 156L528 133L528 301L528 301L499 301L499 301L469 301L469 301L440 301L440 301L411 301L411 301L381 301L381 301L352 301L352 301L323 301L323 301L293 301L293 301L264 301L264 301L235 301L235 301L205 301L205 301L176 301L176 301L147 301L147 301L117 301L117 301L88 301L88 301L59 301L59 301L29 301L29 301L0 301Z" fill="#0d1a30"></path><path d="M0 220L29 220L29 226L59 226L59 250L88 250L88 243L117 243L117 237L147 237L147 201L176 201L176 227L205 227L205 241L235 241L235 199L264 199L264 219L293 219L293 213L323 213L323 235L352 235L352 232L381 232L381 248L411 248L411 196L440 196L440 196L469 196L469 217L499 217L499 232L528 232L528 209L528 301L528 301L499 301L499 301L469 301L469 301L440 301L440 301L411 301L411 301L381 301L381 301L352 301L352 301L323 301L323 301L293 301L293 301L264 301L264 301L235 301L235 301L205 301L205 301L176 301L176 301L147 301L147 301L117 301L117 301L88 301L88 301L59 301L59 301L29 301L29 301L0 301Z" fill="#112240"></path></svg>